<?xml version="1.0" standalone="no"?>
<!DOCTYPE svg PUBLIC "-//W3C//DTD SVG 20010904//EN"
 "http://www.w3.org/TR/2001/REC-SVG-20010904/DTD/svg10.dtd">
<svg version="1.0" xmlns="http://www.w3.org/2000/svg"
 width="800.000000pt" height="800.000000pt" viewBox="0 0 800.000000 800.000000"
 preserveAspectRatio="xMidYMid meet">

<g transform="translate(0.000000,800.000000) scale(0.100000,-0.100000)"
fill="#000000" stroke="none">
<path d="M4581 6906 c-5 -6 -16 -33 -26 -61 -46 -138 -115 -242 -267 -402 -84
-88 -118 -140 -118 -181 0 -10 9 -35 20 -57 11 -22 20 -50 20 -62 0 -13 6 -32
13 -43 10 -17 9 -22 -1 -29 -10 -6 -8 -19 10 -59 26 -60 25 -60 118 4 50 34
80 47 128 54 80 13 106 2 97 -41 -4 -19 -3 -29 5 -29 10 0 9 -4 0 -15 -7 -8
-21 -15 -32 -15 -16 0 -18 3 -9 14 9 11 7 15 -11 19 -43 12 -163 -65 -193
-123 -13 -25 -12 -29 5 -48 19 -20 18 -21 -11 -66 -34 -55 -34 -54 -11 -58 12
-3 26 12 47 51 17 30 42 63 56 74 27 19 147 45 231 48 59 3 102 -22 93 -54 -8
-25 -41 -57 -60 -57 -7 0 -12 8 -11 18 1 15 -8 17 -69 16 -63 0 -76 -4 -127
-37 -31 -20 -61 -37 -66 -37 -18 0 -34 -29 -27 -49 5 -18 12 -20 51 -14 54 7
56 -2 14 -64 -30 -44 -39 -70 -20 -58 6 3 10 -3 10 -14 0 -33 15 -25 46 24 32
51 41 55 53 23 6 -16 2 -38 -11 -72 -18 -48 -18 -76 0 -76 5 0 32 35 61 79 61
94 133 161 174 161 91 0 88 -73 -5 -119 -25 -13 -82 -80 -138 -163 -23 -35
-26 -36 -47 -23 -31 21 -43 19 -43 -6 0 -15 -4 -19 -13 -13 -7 5 -4 2 6 -6 11
-8 29 -25 42 -37 12 -13 28 -23 35 -23 7 0 39 24 71 53 104 95 146 117 165 86
5 -8 9 -8 14 1 6 9 11 7 19 -9 13 -24 2 -54 -32 -83 -25 -23 -34 -23 -16 -1
35 42 -40 -15 -110 -83 -49 -48 -78 -70 -82 -62 -4 6 -15 13 -24 14 -18 3 -16
-21 7 -78 13 -34 18 -35 48 -3 29 31 143 68 182 60 23 -5 28 -12 28 -35 0 -17
-11 -41 -26 -57 l-25 -28 16 33 c16 33 14 62 -3 62 -5 0 -7 -14 -4 -30 4 -27
0 -32 -34 -45 -62 -24 -124 -59 -124 -69 0 -5 11 -19 25 -32 16 -15 25 -34 25
-54 0 -25 4 -30 18 -26 9 2 31 7 49 11 l32 6 -5 -38 c-9 -59 -11 -62 -52 -69
-62 -10 -67 -15 -54 -65 6 -24 8 -64 5 -88 -5 -39 -4 -43 13 -38 73 22 71 23
70 -29 l-1 -48 -44 -8 c-66 -11 -69 -18 -60 -128 5 -52 6 -111 3 -132 -5 -34
-4 -36 25 -43 17 -4 31 -9 31 -11 0 -13 -67 -134 -117 -211 -70 -109 -116
-205 -111 -235 3 -19 11 -9 42 47 37 65 59 104 190 327 27 46 69 113 95 151
25 37 53 80 61 95 8 15 30 48 48 74 67 97 258 463 328 631 45 107 93 250 87
260 -3 5 -1 12 5 16 13 8 174 401 262 641 37 102 81 219 98 260 17 42 30 89
30 105 0 17 11 58 26 92 14 34 26 69 26 78 0 9 7 18 15 22 13 5 51 61 43 64
-2 0 -14 2 -28 4 -74 10 -626 114 -694 131 -19 4 -26 1 -31 -16 -4 -12 -20
-36 -36 -54 l-29 -33 58 -7 c63 -7 166 -51 194 -82 10 -11 25 -37 33 -58 58
-138 -123 -306 -328 -306 -101 0 -201 59 -234 137 -13 33 -13 36 11 58 15 13
26 20 26 15 0 -6 7 -10 16 -10 13 0 14 -3 4 -15 -17 -20 -5 -45 20 -45 23 0
35 22 26 45 -3 8 -6 19 -7 23 -1 4 -5 17 -10 30 -5 12 -5 22 0 22 5 0 16 12
26 26 l17 26 -31 -23 c-17 -13 -31 -26 -31 -30 0 -4 -8 -9 -17 -12 -21 -7 -81
-42 -168 -97 -33 -21 -91 -56 -130 -78 -38 -22 -83 -54 -100 -71 -37 -38 -52
-39 -66 -3 l-11 27 -10 -25 c-7 -20 -11 -22 -18 -10 -5 8 -10 18 -10 23 0 15
41 47 60 47 12 0 44 23 73 53 29 28 79 66 111 82 59 30 208 127 302 197 44 33
174 168 174 181 0 3 -20 8 -45 11 -24 4 -91 23 -147 42 -187 64 -257 83 -267
70z m299 -525 c0 -14 -18 -23 -30 -16 -6 4 -8 11 -5 16 8 12 35 12 35 0z
m-455 -211 c-3 -5 -21 -9 -38 -9 l-32 1 30 8 c43 11 47 11 40 0z m935 -185
c-7 -8 -10 -26 -7 -40 3 -16 0 -24 -7 -22 -19 6 -19 50 0 64 24 17 29 16 14
-2z m80 -21 c0 -15 -27 -44 -42 -44 -6 0 -3 9 6 19 12 14 16 27 10 43 -6 20
-5 21 10 9 9 -7 16 -19 16 -27z m-165 -414 c40 -45 -28 -100 -80 -66 -29 19
-31 33 -9 64 19 28 65 29 89 2z m-425 -688 c0 -16 -7 -37 -16 -48 -15 -18 -15
-18 -5 3 6 12 11 33 11 47 0 14 2 26 5 26 3 0 5 -13 5 -28z m-7 -284 l-11 -33
-1 45 c-1 33 2 41 11 32 8 -8 8 -20 1 -44z"/>
<path d="M5208 5549 c-24 -14 -23 -35 3 -53 26 -18 46 -11 55 17 4 14 1 25
-12 34 -21 15 -24 16 -46 2z"/>
<path d="M5016 6621 c-5 -7 -3 -18 3 -24 14 -14 20 -6 11 17 -5 15 -9 16 -14
7z"/>
<path d="M4980 6585 c-11 -13 -10 -14 4 -9 9 3 16 10 16 15 0 13 -6 11 -20 -6z"/>
<path d="M5185 6590 c-4 -6 -10 -8 -14 -5 -5 2 -6 -6 -4 -19 3 -13 0 -27 -6
-30 -6 -4 -11 -16 -11 -27 0 -12 -7 -19 -19 -19 -23 0 -37 16 -46 53 -9 36
-21 34 -41 -8 -18 -38 -16 -37 -89 -36 l-50 2 41 -38 c41 -37 42 -39 28 -68
-22 -50 -17 -55 31 -28 l45 25 46 -22 c50 -24 61 -22 45 8 -21 39 -13 61 32
84 41 22 41 23 15 26 -31 4 -35 14 -14 34 7 8 17 29 21 46 7 32 2 42 -10 22z"/>
<path d="M6103 6528 c-6 -18 -11 -51 -11 -73 l0 -40 26 58 c20 42 32 57 47 57
20 1 20 1 1 15 -31 24 -51 18 -63 -17z"/>
<path d="M5241 6531 c-24 -15 -3 -32 25 -19 18 8 21 14 12 20 -16 10 -20 10
-37 -1z"/>
<path d="M5268 6503 c-12 -3 -18 -14 -18 -36 0 -18 -3 -43 -7 -56 -5 -21 -3
-22 17 -16 17 5 21 4 15 -5 -5 -9 -4 -11 3 -6 20 12 14 39 -7 33 -14 -3 -18
-1 -14 9 3 8 17 15 32 15 20 1 22 2 6 6 -31 7 -42 23 -18 23 16 0 21 6 20 20
-1 11 -4 19 -7 19 -3 -1 -13 -3 -22 -6z"/>
<path d="M5160 6430 c0 -5 4 -10 9 -10 6 0 13 5 16 10 3 6 -1 10 -9 10 -9 0
-16 -4 -16 -10z"/>
<path d="M6011 6309 c-25 -63 -67 -166 -94 -229 -163 -382 -410 -1126 -383
-1156 17 -19 25 -5 52 97 55 207 99 336 246 724 33 88 84 216 113 285 29 69
67 166 84 215 18 50 36 100 42 113 12 29 12 45 0 37 -5 -3 -11 2 -13 11 -2 9
-23 -34 -47 -97z"/>
<path d="M5040 6372 c0 -4 5 -13 11 -19 6 -6 8 -21 4 -32 -5 -16 -12 -20 -27
-15 -14 4 -18 2 -14 -5 4 -6 2 -11 -3 -11 -6 0 -11 -4 -11 -10 0 -5 7 -7 15
-4 9 4 15 0 15 -7 1 -16 50 60 50 76 0 6 -9 16 -20 23 -11 7 -20 9 -20 4z"/>
<path d="M4901 6353 c0 -4 4 -17 9 -28 8 -19 9 -19 9 2 1 12 -3 25 -9 28 -5 3
-10 3 -9 -2z"/>
<path d="M5200 6354 c0 -5 9 -15 19 -21 16 -10 20 -9 25 3 3 9 2 12 -5 9 -5
-4 -16 -1 -24 5 -8 7 -15 8 -15 4z"/>
<path d="M4870 6315 c7 -8 17 -15 22 -15 5 0 3 7 -6 15 -8 8 -18 15 -22 15 -3
0 -1 -7 6 -15z"/>
<path d="M5172 6311 c11 -19 38 -18 38 1 0 5 -4 7 -9 3 -5 -3 -12 -1 -16 5 -3
5 -10 10 -16 10 -5 0 -4 -9 3 -19z"/>
<path d="M5127 6313 c-4 -3 -7 -18 -7 -32 0 -15 3 -21 8 -15 4 7 15 13 26 15
18 4 18 5 -1 22 -11 9 -23 14 -26 10z"/>
<path d="M6450 5867 c0 -19 26 -41 91 -78 30 -17 47 -29 38 -26 -35 11 -145
17 -158 9 -20 -14 0 -44 61 -88 29 -21 57 -41 62 -45 4 -4 -25 1 -65 12 -103
27 -135 25 -122 -7 8 -22 131 -81 205 -99 47 -12 70 -14 91 -6 40 15 34 44
-19 101 l-47 50 65 0 c40 0 72 5 84 14 19 14 19 15 -2 43 -32 43 -97 89 -159
112 -64 24 -125 28 -125 8z"/>
<path d="M4697 5826 c10 -13 20 -20 21 -15 5 12 -17 39 -30 39 -5 0 -1 -11 9
-24z"/>
<path d="M4752 5628 c5 -15 48 -24 48 -10 0 10 -23 22 -42 22 -5 0 -8 -6 -6
-12z"/>
<path d="M6330 5575 c-10 -12 -9 -20 4 -40 10 -15 24 -29 32 -32 15 -6 19 -40
6 -60 -6 -10 -16 -10 -44 -1 -20 6 -43 8 -52 5 -22 -9 -20 -40 3 -61 40 -36
218 -76 276 -62 53 13 52 81 -3 140 -36 38 -129 100 -171 114 -41 15 -36 15
-51 -3z m160 -147 c41 -30 38 -42 -11 -35 -49 6 -53 10 -44 36 8 27 19 26 55
-1z"/>
<path d="M5886 5488 c-97 -261 -178 -530 -163 -544 2 -2 16 42 32 99 16 56 59
194 97 306 67 201 87 281 34 139z"/>
<path d="M4800 5392 c0 -10 41 -35 47 -28 11 11 -7 36 -27 36 -11 0 -20 -3
-20 -8z"/>
<path d="M6224 5326 c-10 -27 1 -40 62 -74 l59 -31 -73 -1 c-84 0 -112 -11
-112 -44 0 -63 233 -180 284 -143 29 21 8 47 -68 84 l-71 35 77 -6 c127 -9
166 19 108 79 -71 73 -250 142 -266 101z"/>
<path d="M6095 5045 c-38 -37 -31 -88 18 -142 11 -12 25 -33 31 -45 6 -13 19
-24 28 -26 24 -5 59 55 56 93 -3 27 -6 30 -35 29 -36 -2 -52 21 -30 44 30 29
157 -51 157 -98 0 -18 -4 -20 -39 -14 -31 5 -39 3 -45 -12 -10 -27 36 -64 79
-64 44 0 75 32 75 77 0 43 -19 79 -62 119 -49 47 -90 64 -153 64 -46 0 -60 -4
-80 -25z"/>
<path d="M2569 5014 c-8 -11 -27 -41 -40 -69 -62 -122 -155 -295 -190 -350
-20 -33 -75 -121 -120 -194 -46 -74 -104 -162 -129 -195 -60 -78 -172 -247
-238 -357 -44 -73 -52 -94 -52 -135 1 -50 9 -71 45 -115 64 -78 321 -228 539
-313 289 -114 692 -310 873 -425 40 -25 124 -81 187 -123 310 -210 629 -323
1009 -359 137 -13 337 -7 399 11 90 26 112 83 64 164 -34 59 -101 111 -224
177 -53 28 -131 71 -172 95 -41 24 -92 50 -113 59 l-39 16 22 -39 c18 -32 21
-49 16 -85 -4 -25 -14 -51 -21 -57 -8 -7 -15 -22 -15 -34 0 -34 -27 -65 -50
-59 -52 14 -78 94 -41 127 20 18 51 95 51 127 0 20 -75 119 -90 119 -6 0 -10
-20 -10 -45 0 -38 -5 -48 -29 -66 -16 -12 -32 -32 -35 -45 -14 -56 -96 -6 -96
58 0 22 6 31 28 39 81 31 97 102 29 128 -22 9 -35 6 -73 -14 -26 -14 -52 -25
-58 -25 -6 0 -17 -9 -24 -20 -32 -52 -100 -2 -89 66 8 50 25 67 60 60 16 -3
38 -1 50 6 31 16 77 61 77 74 0 23 -37 44 -78 44 -29 0 -44 5 -51 17 -9 17
-11 16 -33 -4 -13 -12 -39 -29 -58 -37 -19 -8 -43 -24 -52 -35 -22 -26 -69
-27 -91 -3 -40 45 0 132 61 132 33 0 98 41 94 59 -1 7 2 9 9 5 15 -9 29 14 29
50 l0 29 -67 -7 c-125 -12 -156 -18 -187 -37 -40 -24 -57 -24 -84 1 -28 27
-30 82 -2 110 16 16 32 19 82 18 62 -2 191 33 204 54 11 18 -22 38 -71 44 -28
3 -88 10 -135 15 -47 5 -89 10 -95 11 -5 0 -22 -3 -36 -6 -65 -18 -99 74 -45
121 33 28 63 29 90 4 12 -12 43 -23 74 -27 54 -7 54 -7 50 19 -1 14 2 26 7 26
31 1 86 -22 95 -40 11 -20 42 -19 64 1 15 14 -29 49 -87 69 -31 11 -71 26 -89
34 -18 9 -64 29 -101 46 -38 17 -80 31 -93 31 -84 0 -109 96 -35 135 40 20 48
19 79 -12 15 -15 49 -38 75 -50 57 -27 63 -20 53 60 -4 29 -10 77 -14 107 l-7
55 -60 6 c-33 4 -68 3 -78 -3 -10 -5 -30 -8 -45 -6 -24 3 -27 7 -24 38 1 19
-2 42 -7 50 -16 23 -27 -18 -12 -42 7 -11 10 -23 6 -26 -10 -11 -25 21 -25 54
0 63 43 77 170 56 35 -6 66 -10 67 -8 2 2 -2 27 -8 57 -15 75 -51 133 -94 153
-39 19 -142 42 -220 49 -165 16 -460 124 -596 219 -68 47 -102 91 -109 142 -5
36 -6 37 -21 20z m173 -644 c145 -45 236 -151 246 -290 5 -80 -8 -130 -50
-195 -92 -139 -271 -191 -421 -122 -136 62 -213 226 -177 376 25 106 127 207
239 237 65 18 90 17 163 -6z m1024 -747 c17 -17 17 -18 -1 -21 -9 -2 -21 2
-26 10 -20 31 -1 39 27 11z m-877 -279 c9 -20 9 -31 -1 -51 -20 -41 -43 -51
-76 -33 -37 22 -39 78 -2 97 40 20 65 16 79 -13z m465 -240 c22 -21 20 -60 -4
-84 -24 -24 -38 -25 -68 -4 -22 15 -29 49 -14 69 7 10 50 33 64 34 4 1 14 -6
22 -15z m1480 -485 c91 -82 99 -142 23 -180 -34 -18 -65 -23 -159 -27 l-117
-5 -9 39 c-6 22 -13 87 -16 146 -3 59 -12 126 -21 150 -8 24 -15 48 -15 54 0
19 256 -126 314 -177z"/>
<path d="M2560 4305 c-20 -25 -8 -50 25 -50 21 0 31 5 33 18 4 21 -14 47 -33
47 -7 0 -18 -7 -25 -15z m40 -25 c0 -21 -24 -28 -35 -10 -8 14 3 30 21 30 8 0
14 -9 14 -20z"/>
<path d="M2630 4290 c0 -16 5 -30 10 -30 6 0 10 5 10 12 0 9 3 9 12 0 19 -19
28 -14 28 18 0 27 -3 30 -30 30 -27 0 -30 -3 -30 -30z"/>
<path d="M2710 4280 c0 -34 16 -39 36 -12 18 23 17 35 -1 28 -8 -3 -15 -1 -15
4 0 6 -4 10 -10 10 -5 0 -10 -13 -10 -30z"/>
<path d="M2497 4272 c-22 -24 -21 -39 0 -51 20 -11 53 3 53 21 0 9 -3 9 -12 0
-7 -7 -18 -12 -25 -12 -18 0 -16 29 2 36 8 4 15 10 15 15 0 15 -16 10 -33 -9z"/>
<path d="M2767 4255 c-17 -23 -17 -25 2 -35 26 -13 40 -13 21 1 -11 8 -12 12
-2 16 6 2 9 9 6 15 -4 6 2 8 17 4 23 -7 23 -7 5 8 -25 20 -28 20 -49 -9z"/>
<path d="M2823 4211 c-23 -19 -21 -34 3 -24 10 4 12 0 8 -11 -9 -22 9 -20 31
4 15 16 15 22 5 35 -16 19 -20 19 -47 -4z"/>
<path d="M2683 4178 l-41 -41 -51 21 c-27 12 -55 22 -61 22 -5 0 1 -22 15 -50
14 -27 25 -55 25 -63 0 -7 -16 -28 -35 -47 -19 -19 -35 -38 -35 -42 0 -5 28
-6 63 -2 l62 6 30 -51 c17 -28 33 -51 36 -51 3 0 10 28 15 62 l9 62 59 13 c33
7 62 15 64 18 2 2 -21 17 -53 32 l-57 28 4 57 c2 31 1 59 -3 62 -3 3 -24 -13
-46 -36z"/>
<path d="M2870 4138 c-7 -18 -9 -19 -9 -5 -1 9 -5 17 -11 17 -14 0 -13 -13 3
-35 16 -20 37 -13 37 13 0 14 2 15 10 2 11 -18 23 -8 14 14 -9 23 -33 20 -44
-6z"/>
<path d="M2426 4116 c4 -10 1 -16 -9 -16 -8 0 -18 6 -20 13 -4 8 -6 7 -6 -3 0
-15 95 -70 121 -70 7 0 19 9 25 19 11 18 9 19 -25 15 -47 -6 -71 8 -53 30 8 9
9 16 3 16 -6 0 -18 3 -26 6 -12 5 -15 2 -10 -10z"/>
<path d="M2883 4093 c-25 -5 -32 -36 -11 -49 7 -5 9 -2 5 8 -4 11 2 17 19 21
18 3 24 1 20 -9 -3 -8 -1 -14 4 -14 6 0 10 11 10 25 0 25 -4 26 -47 18z"/>
<path d="M2390 4000 c0 -5 5 -10 11 -10 6 0 8 -9 4 -20 -8 -25 3 -25 34 -1 13
10 21 23 17 30 -9 14 -66 15 -66 1z"/>
<path d="M2765 3970 c3 -5 8 -10 11 -10 2 0 4 5 4 10 0 6 -5 10 -11 10 -5 0
-7 -4 -4 -10z"/>
<path d="M2436 3945 c-18 -14 -16 -45 3 -45 6 0 8 7 5 15 -4 8 1 17 10 21 9 3
16 10 16 15 0 13 -12 11 -34 -6z"/>
<path d="M2590 3943 c0 -5 4 -14 9 -21 7 -11 9 -11 14 1 3 8 3 18 0 21 -9 8
-23 7 -23 -1z"/>
<path d="M2743 3934 c15 -8 25 -19 22 -24 -3 -6 4 -9 17 -9 13 0 41 -2 63 -6
39 -6 39 -6 15 9 -14 8 -19 15 -12 16 6 0 12 4 12 9 0 5 -13 4 -29 -2 -25 -9
-33 -8 -49 6 -10 9 -29 17 -43 17 -24 -1 -24 -1 4 -16z"/>
<path d="M2467 3898 c-15 -15 -16 -22 -6 -34 6 -8 16 -14 21 -14 6 0 6 5 -1
14 -9 10 -8 16 4 26 16 13 20 31 8 29 -5 0 -16 -10 -26 -21z"/>
<path d="M2540 3851 c0 -11 6 -22 13 -25 6 -3 1 -3 -13 0 -23 6 -24 5 -8 -11
19 -20 42 -11 35 15 -4 14 -1 17 12 12 14 -5 14 -4 2 11 -18 23 -41 22 -41 -2z"/>
<path d="M2728 3863 c-21 -5 -21 -5 -6 -38 12 -26 34 -36 24 -10 -3 8 -1 15 4
15 6 0 10 -4 10 -10 0 -5 5 -10 10 -10 15 0 12 16 -7 37 -10 11 -26 18 -35 16z"/>
<path d="M2604 3823 c3 -35 20 -46 24 -15 2 12 8 22 13 22 6 0 7 5 4 10 -3 6
-14 10 -24 10 -14 0 -18 -7 -17 -27z"/>
<path d="M2667 3843 c-2 -5 -7 -20 -11 -35 -7 -30 8 -39 18 -11 6 15 8 15 16
3 14 -23 22 -6 11 24 -10 25 -25 34 -34 19z"/>
<path d="M2812 3338 c-18 -18 -14 -46 9 -58 26 -15 45 -7 52 19 9 37 -35 65
-61 39z"/>
<path d="M3287 3083 c-16 -15 -5 -44 19 -55 22 -10 28 -10 40 6 9 13 10 24 3
37 -9 18 -49 26 -62 12z"/>
<path d="M2674 4909 c-3 -6 0 -18 9 -26 11 -12 19 -13 33 -4 18 10 18 10 -3
11 -16 0 -21 4 -17 15 7 17 -11 21 -22 4z"/>
<path d="M2730 4849 c25 -20 99 -59 109 -59 11 1 -44 40 -56 40 -6 0 -14 8
-17 18 -4 10 -17 18 -33 19 l-27 1 24 -19z"/>
<path d="M5691 4854 c0 -11 3 -14 6 -6 3 7 2 16 -1 19 -3 4 -6 -2 -5 -13z"/>
<path d="M5987 4769 c-31 -18 -20 -47 28 -75 63 -37 58 -50 -21 -57 -69 -5
-101 -23 -91 -51 5 -13 24 -16 96 -16 80 0 90 -2 96 -19 8 -25 81 -91 100 -91
32 0 27 31 -14 92 -35 53 -48 78 -38 78 1 0 26 -9 56 -21 48 -18 56 -18 69 -5
8 8 12 21 9 30 -3 8 -56 41 -118 71 -141 71 -151 75 -172 64z"/>
<path d="M5506 4418 c-59 -117 -115 -222 -125 -233 -21 -24 -243 -387 -269
-440 -11 -23 18 15 74 95 86 124 194 292 251 392 55 95 188 387 180 394 -2 3
-53 -91 -111 -208z"/>
<path d="M5888 4514 c-32 -17 -58 -61 -58 -98 0 -77 174 -167 275 -142 40 10
31 48 -15 59 -132 32 -185 60 -178 95 3 13 14 17 49 17 34 -1 59 -10 106 -39
68 -42 106 -45 111 -9 4 29 -33 64 -111 103 -68 34 -134 39 -179 14z"/>
<path d="M5776 4325 c-20 -20 -20 -36 -2 -80 32 -75 89 -102 159 -76 33 13 57
-5 66 -49 14 -69 71 -62 71 9 0 43 -31 97 -64 113 -18 8 -37 8 -70 -1 -24 -6
-51 -9 -58 -6 -7 3 -24 26 -38 52 -28 53 -41 61 -64 38z"/>
<path d="M3750 4115 c7 -8 16 -15 20 -15 4 0 10 7 14 15 4 11 -2 15 -21 15
-21 0 -24 -2 -13 -15z"/>
<path d="M5667 4083 c-14 -13 -6 -79 13 -110 10 -18 31 -40 45 -49 23 -15 32
-16 81 -4 62 15 67 12 86 -45 13 -41 40 -57 61 -36 29 29 -10 142 -54 156 -11
4 -47 4 -79 0 l-59 -7 -26 51 c-24 48 -49 64 -68 44z"/>
<path d="M3432 4068 c-15 -15 -16 -54 -2 -63 16 -10 40 21 40 49 0 28 -18 34
-38 14z"/>
<path d="M5611 3916 c-18 -21 -5 -53 30 -73 31 -19 33 -22 21 -40 -6 -10 -16
-10 -44 -1 -43 13 -68 6 -68 -20 0 -28 23 -45 139 -101 114 -56 145 -62 161
-30 15 27 3 41 -65 70 -45 20 -53 27 -48 44 3 11 6 21 8 23 1 1 27 -9 58 -24
62 -28 84 -28 101 -1 18 29 -3 46 -129 103 -149 67 -150 68 -164 50z"/>
<path d="M3473 3778 c-21 -28 -22 -36 -4 -52 18 -17 20 -17 31 3 14 27 -10 70
-27 49z"/>
<path d="M1746 3689 c-14 -17 -26 -42 -26 -56 0 -14 -6 -39 -14 -56 -39 -85
-77 -200 -74 -224 5 -40 20 -37 47 9 l24 42 18 -36 c25 -50 87 -100 199 -163
107 -60 300 -143 405 -174 176 -53 387 -127 500 -175 210 -90 283 -137 616
-393 l106 -82 14 26 c10 20 11 27 2 30 -13 5 -112 77 -309 225 -182 138 -410
253 -689 347 -66 22 -152 47 -191 55 -69 14 -207 72 -389 163 -192 96 -265
172 -250 256 4 23 9 74 10 114 1 48 7 80 19 97 23 35 13 33 -18 -5z"/>
<path d="M5495 3655 c-35 -34 -34 -93 0 -134 65 -77 233 -115 276 -62 12 14
19 39 19 64 0 35 -6 46 -44 82 -76 74 -203 99 -251 50z m153 -75 c44 -20 62
-44 45 -61 -25 -25 -157 41 -139 69 10 17 45 14 94 -8z"/>
<path d="M4560 3649 c0 -5 5 -7 10 -4 6 3 10 8 10 11 0 2 -4 4 -10 4 -5 0 -10
-5 -10 -11z"/>
<path d="M3572 3518 c-21 -21 -8 -68 19 -68 10 0 20 46 13 64 -7 19 -16 20
-32 4z"/>
<path d="M5425 3458 c-22 -17 -25 -27 -25 -89 0 -55 3 -71 16 -76 28 -11 49
11 52 56 3 33 7 42 20 39 13 -2 18 -17 22 -57 6 -64 31 -90 56 -57 8 11 14 33
14 49 0 29 1 30 20 12 14 -12 20 -33 22 -74 3 -48 6 -56 24 -59 31 -4 44 19
51 90 l6 65 -46 32 c-49 34 -114 64 -171 79 -30 9 -40 7 -61 -10z"/>
<path d="M3714 3266 c-8 -22 2 -46 21 -46 19 0 20 34 0 50 -12 10 -16 9 -21
-4z"/>
<path d="M4122 3118 c-20 -20 -14 -38 12 -38 17 0 25 7 28 25 4 19 1 25 -11
25 -10 0 -22 -5 -29 -12z"/>
<path d="M1216 3082 c-10 -16 3 -38 29 -50 l24 -11 -49 -93 c-47 -88 -61 -140
-41 -152 20 -13 42 9 82 82 64 117 77 134 102 126 12 -4 23 -8 25 -9 2 -2 -22
-52 -53 -111 -59 -112 -65 -147 -28 -152 16 -2 28 6 45 32 13 20 31 36 41 36
16 0 17 -6 11 -58 -5 -47 -3 -60 10 -72 28 -22 56 15 63 83 4 41 10 57 20 57
8 0 31 16 50 35 31 31 34 39 31 81 -4 57 -33 84 -101 91 -33 4 -47 10 -50 23
-11 41 -191 94 -211 62z m274 -177 c18 -21 -4 -45 -41 -45 l-30 0 16 30 c17
33 36 38 55 15z"/>
<path d="M3900 3061 c0 -12 5 -21 10 -21 6 0 10 6 10 14 0 8 -4 18 -10 21 -5
3 -10 -3 -10 -14z"/>
<path d="M1605 2856 c-45 -48 -115 -188 -108 -216 10 -37 45 -51 114 -48 54 3
64 6 67 22 5 24 -23 46 -58 46 -32 0 -41 7 -33 26 3 10 22 14 58 14 83 0 101
48 24 65 -51 11 -26 30 47 35 62 5 69 7 72 28 3 18 -4 26 -31 37 -19 8 -54 17
-76 21 -38 6 -44 4 -76 -30z"/>
<path d="M1800 2752 c-81 -84 -136 -223 -95 -238 20 -8 42 11 78 66 l29 45 -7
-66 c-10 -105 24 -147 82 -101 38 30 103 135 119 190 14 48 14 56 1 69 -23 24
-49 2 -91 -74 -27 -50 -36 -60 -32 -38 22 139 16 195 -21 195 -9 0 -38 -22
-63 -48z"/>
<path d="M4293 2675 c4 -9 7 -19 7 -21 0 -2 7 -4 15 -4 22 0 18 18 -7 31 -18
10 -20 9 -15 -6z"/>
<path d="M2068 2648 c-43 -35 -145 -226 -135 -252 9 -22 74 -39 121 -32 174
26 239 239 87 285 -48 14 -54 14 -73 -1z m60 -90 c22 -22 14 -65 -19 -92 -26
-23 -79 -36 -79 -21 0 11 43 90 58 108 18 20 24 21 40 5z"/>
<path d="M2254 2536 c-4 -9 1 -25 10 -35 15 -16 13 -21 -17 -72 -55 -91 -69
-109 -78 -103 -13 8 -49 -15 -49 -32 0 -19 75 -53 116 -54 36 0 50 21 33 48
-17 26 71 165 109 172 64 12 10 78 -72 87 -36 5 -47 2 -52 -11z"/>
<path d="M2533 2371 c-48 -35 -117 -114 -139 -159 -31 -66 2 -93 57 -44 28 25
36 28 59 19 l26 -10 -15 -43 c-14 -39 -14 -45 0 -59 22 -22 45 -10 73 39 30
51 66 167 66 212 0 40 -29 74 -63 74 -13 0 -42 -13 -64 -29z m57 -66 c0 -23
-22 -65 -34 -65 -6 0 -18 5 -26 10 -12 8 -10 14 15 40 32 33 45 38 45 15z"/>
<path d="M2729 2260 c-65 -68 -126 -190 -113 -225 3 -8 17 -15 29 -15 18 0 32
14 59 57 l36 58 -6 -75 c-6 -65 -4 -78 13 -99 25 -31 52 -22 97 32 81 99 126
237 78 237 -24 0 -54 -33 -85 -95 -30 -57 -31 -52 -16 47 19 121 -20 154 -92
78z"/>
<path d="M2994 2152 c-32 -22 -134 -207 -134 -243 0 -39 115 -52 185 -20 97
43 142 162 86 225 -34 38 -107 59 -137 38z m71 -103 c15 -47 -17 -89 -79 -105
-31 -7 -35 12 -11 51 8 14 22 36 30 50 19 30 51 33 60 4z"/>
<path d="M3299 1962 c-74 -48 -128 -148 -115 -217 8 -42 57 -85 96 -85 15 0
38 8 51 19 20 16 21 21 10 34 -7 9 -25 19 -41 22 -45 10 -54 27 -35 72 18 42
72 103 92 103 16 0 16 -10 3 -44 -11 -29 12 -61 37 -52 8 3 16 6 19 6 11 0 34
64 34 95 0 75 -71 97 -151 47z"/>
<path d="M3514 1876 c-77 -34 -147 -167 -128 -243 7 -30 17 -42 47 -56 36 -18
38 -18 81 3 96 46 159 212 104 274 -29 32 -64 39 -104 22z m39 -120 c-1 -16
-14 -46 -28 -67 -42 -65 -80 -45 -50 27 20 49 44 76 64 71 11 -2 15 -12 14
-31z"/>
<path d="M3687 1729 c-27 -28 -62 -78 -78 -112 -62 -132 -16 -163 64 -43 22
34 37 54 34 45 -14 -40 -29 -140 -24 -154 11 -26 30 -17 89 46 32 33 58 59 58
57 0 -2 -11 -34 -25 -73 -27 -77 -30 -101 -14 -110 18 -12 57 35 98 119 84
170 59 246 -53 161 -26 -19 -48 -35 -51 -35 -2 0 -1 22 2 49 13 113 -22 131
-100 50z"/>
<path d="M3976 1587 c-14 -18 -41 -67 -61 -109 -56 -117 -37 -183 27 -94 28
41 36 46 71 46 45 0 77 15 77 35 0 17 -30 35 -59 35 -22 0 -28 14 -10 25 6 4
33 8 60 9 89 3 107 54 25 75 -77 19 -102 15 -130 -22z"/>
<path d="M4171 1509 c-40 -24 -65 -51 -90 -99 -57 -107 -28 -200 63 -200 34 0
46 6 86 48 63 66 96 167 74 227 -7 18 -55 45 -81 45 -10 0 -33 -9 -52 -21z
m55 -113 c-7 -35 -44 -93 -65 -101 -25 -10 -34 11 -21 49 27 81 101 126 86 52z"/>
<path d="M4368 1417 c-25 -20 -128 -222 -128 -251 0 -44 29 -45 64 -3 44 53
55 48 58 -25 3 -55 6 -63 24 -66 26 -4 44 33 44 92 0 39 3 45 26 50 14 4 38
20 53 36 25 27 29 29 47 16 18 -14 18 -17 -28 -108 -52 -101 -61 -148 -29
-148 24 0 43 25 100 129 l43 80 47 3 c39 3 46 6 49 26 3 19 -6 27 -54 49 -31
14 -76 28 -99 30 -34 4 -43 10 -52 33 -6 16 -24 35 -39 43 -43 21 -108 29
-126 14z m78 -92 c9 -21 -14 -45 -42 -45 -28 0 -28 1 -12 35 12 28 45 34 54
10z"/>
</g>
</svg>
